# xmcd
#
# Track frame offsets: 
#        182
#        13827
#        27652
#        39675
#        52610
#        62807
#        73955
#        85630
#        97615
#
# Disc length: 1436 seconds
#
# Revision: 0
# Processed by: cddbd v1.5.2PL0 Copyright (c) Steve Scherf et al.
# Submitted via: ExactAudioCopy v0.90a11
#
DISCID=6d059a09
DTITLE=George Jones and Conway Twitty - George Jones and Conway Twitty
DYEAR=1996
DGENRE=Country
TTITLE0=The Games That Daddies Play (Conway)
TTITLE1=Come Sundown (George)
TTITLE2=She Needs Someone To Hold Her (When She Cries) (Conway)
TTITLE3=Your Stepping Stone (George)
TTITLE4=Your Angel Steps Out Of Heaven Each Night (George)
TTITLE5=Would It Do Me Any Good (George)
TTITLE6=To See My Angel Cry (Conway)
TTITLE7=She's Lonesome Again (George)
TTITLE8=You're Still On My Mind (George)
EXTD=
EXTT0=
EXTT1=
EXTT2=
EXTT3=
EXTT4=
EXTT5=
EXTT6=
EXTT7=
EXTT8=
PLAYORDER=
